<svg xmlns="http://www.w3.org/2000/svg" width="20" height="20" viewBox="0 0 20 20" fill="none">
<path d="M9.99984 1.66667C5.39984 1.66667 1.6665 5.40001 1.6665 10C1.6665 14.6 5.39984 18.3333 9.99984 18.3333C14.5998 18.3333 18.3332 14.6 18.3332 10C18.3332 5.40001 14.5998 1.66667 9.99984 1.66667ZM10.8332 15.8333H9.1665V14.1667H10.8332V15.8333ZM12.5582 9.375L11.8082 10.1417C11.2082 10.75 10.8332 11.25 10.8332 12.5H9.1665V12.0833C9.1665 11.1667 9.5415 10.3333 10.1415 9.72501L11.1748 8.675C11.4832 8.375 11.6665 7.95834 11.6665 7.5C11.6665 6.58334 10.9165 5.83334 9.99984 5.83334C9.08317 5.83334 8.33317 6.58334 8.33317 7.5H6.6665C6.6665 5.65834 8.15817 4.16667 9.99984 4.16667C11.8415 4.16667 13.3332 5.65834 13.3332 7.5C13.3332 8.23334 13.0332 8.9 12.5582 9.375Z" fill="#2A4125"/>
</svg>