<svg width="30" height="30" viewBox="0 0 30 30" fill="none" xmlns="http://www.w3.org/2000/svg">
<g clip-path="url(#clip0_2201_801)">
<path d="M25.629 4.35934C22.8091 1.55012 19.0593 0.00202102 15.064 0C6.82953 0 0.129932 6.66734 0.125871 14.8646C0.121811 17.4737 0.810043 20.0364 2.11951 22.2959L0 30L7.91771 27.9325C10.1002 29.1168 12.5567 29.7413 15.0558 29.7413H15.0619C23.2943 29.7413 29.9959 23.0719 30 14.8767C30 10.9054 28.4489 7.17057 25.629 4.35934Z" fill="#C81E25"/>
<path fill-rule="evenodd" clip-rule="evenodd" d="M11.2717 8.65028C10.9915 8.03185 10.6971 8.01972 10.4312 8.0076L9.71653 7.99951C9.46682 7.99951 9.06281 8.09248 8.72174 8.46435C8.38067 8.83621 7.41431 9.73557 7.41431 11.5626C7.41431 13.3896 8.7522 15.1559 8.93897 15.4045C9.12575 15.6531 11.5214 19.5234 15.3158 21.0128C18.4686 22.2497 19.1102 22.0052 19.7944 21.9425C20.4785 21.8799 22.0032 21.0432 22.3138 20.1761C22.6244 19.3091 22.6244 18.5654 22.531 18.4098C22.4377 18.2542 22.19 18.1612 21.8144 17.9753C21.4388 17.7893 19.6055 16.89 19.2645 16.7667C18.9234 16.6434 18.6737 16.5808 18.424 16.9526C18.1743 17.3245 17.4596 18.1612 17.2424 18.4098C17.0252 18.6584 16.808 18.6887 16.4344 18.5027C16.0609 18.3168 14.859 17.9247 13.4338 16.6596C12.3253 15.6753 11.5762 14.4587 11.3569 14.0868C11.1377 13.715 11.3346 13.5149 11.5214 13.3289C11.6878 13.1632 11.8949 12.8944 12.0817 12.6782C12.2685 12.4619 12.3294 12.3063 12.4552 12.0577C12.5811 11.8091 12.5182 11.5929 12.4248 11.4069C12.3314 11.221 11.6066 9.38391 11.2737 8.64826" fill="white"/>
</g>
<defs>
<clipPath id="clip0_2201_801">
<rect width="30" height="30" fill="white"/>
</clipPath>
</defs>
</svg>
