<svg xmlns="http://www.w3.org/2000/svg" viewBox="0 0 36 36" fill="none">
    <circle cx="18" cy="18" r="18" fill="#F5F5F5"/>
    <path d="M26 19C26.5523 19 27 18.5523 27 18C27 17.4477 26.5523 17 26 17V19ZM9.29289 17.2929C8.90237 17.6834 8.90237 18.3166 9.29289 18.7071L15.6569 25.0711C16.0474 25.4616 16.6805 25.4616 17.0711 25.0711C17.4616 24.6805 17.4616 24.0474 17.0711 23.6569L11.4142 18L17.0711 12.3431C17.4616 11.9526 17.4616 11.3195 17.0711 10.9289C16.6805 10.5384 16.0474 10.5384 15.6569 10.9289L9.29289 17.2929ZM26 17L10 17V19L26 19V17Z" fill="black"/>
</svg>
