<svg width="48" height="48" viewBox="0 0 48 48" fill="none" xmlns="http://www.w3.org/2000/svg">
<path d="M12.8913 13.8303H34.4829V11.8013H10.2505V32.9442H12.2795V13.8303H12.8919H12.8913ZM35.7057 13.8303H38.9609V37.4222H12.2789V34.167H9.0257V10.5771H35.7057V13.8303ZM19.6277 17.9964C20.3917 17.9964 21.0859 18.3083 21.5896 18.81C22.0914 19.3117 22.4033 20.006 22.4033 20.772C22.4033 21.538 22.0914 22.2302 21.5896 22.7339L21.5876 22.736C21.0859 23.2377 20.3917 23.5476 19.627 23.5476C18.8623 23.5476 18.1668 23.2377 17.665 22.736C17.1633 22.2322 16.8514 21.538 16.8514 20.772C16.8514 20.006 17.1613 19.3117 17.665 18.81C18.1668 18.3083 18.861 17.9964 19.627 17.9964H19.6277ZM13.5037 31.5282L19.0139 26.018L23.3893 30.3933L32.419 21.3636L37.7374 26.682V15.0551H13.5037V31.5282Z" fill="#797979"/>
</svg>
