<svg class="w-full h-full" viewBox="0 0 18 18" fill="none" xmlns="http://www.w3.org/2000/svg">
<circle cx="9" cy="9" r="9" fill="#BFD0AD"/>
<path d="M15 6.40348C14.6419 6.7971 14.2963 7.17781 13.95 7.55772C13.9262 7.58433 13.8927 7.59885 13.869 7.62466C13.5988 7.91988 13.3286 8.21509 13.0605 8.51192C12.3673 9.28061 11.6768 10.0509 10.9829 10.818C10.4795 11.3737 9.97404 11.9262 9.46649 12.4763C8.99943 12.9837 8.52818 13.487 8.05204 14C7.93685 13.8903 7.81188 13.7854 7.70157 13.6628C7.2757 13.1934 6.85682 12.7159 6.43095 12.2448C5.89966 11.6568 5.36488 11.0712 4.8294 10.4865C4.56061 10.1929 4.28833 9.9033 4 9.59357C4.43774 9.11122 4.85244 8.65388 5.28808 8.17396C6.21243 9.18301 7.12351 10.1783 8.03459 11.1729C8.2573 10.9422 8.46604 10.7333 8.66571 10.5155C9.01967 10.1291 9.36805 9.73553 9.71992 9.34675C10.3399 8.66033 10.9598 7.97392 11.5812 7.28993C12.0852 6.7358 12.5907 6.18247 13.0976 5.63237C13.2888 5.42427 13.4878 5.22504 13.7042 5C14.1287 5.45976 14.5588 5.92597 15 6.40348Z" fill="#2A4125"/>
</svg>