<svg width="24" height="24" viewBox="0 0 24 24" fill="none" xmlns="http://www.w3.org/2000/svg">
<path d="M23.9318 11.6833C23.8367 11.3026 23.5939 11.031 23.3231 10.7752C22.8292 10.3091 22.3156 9.86327 21.834 9.38675C21.3508 8.90799 21.1165 8.31552 21.1005 7.63777C21.0822 6.87848 21.0853 6.11694 21.0229 5.36065C20.9468 4.45249 20.2194 3.82336 19.3421 3.75679C18.5332 3.69544 17.7176 3.72462 16.9049 3.71863C16.1052 3.71265 15.4303 3.4224 14.8566 2.88005C14.3681 2.41924 13.8682 1.9704 13.3759 1.51407C12.6356 0.828095 11.3961 0.829591 10.6291 1.51482C10.1224 1.9674 9.61866 2.42373 9.13245 2.89651C8.56635 3.44783 7.88992 3.71115 7.10316 3.71639C6.49673 3.72088 5.8903 3.70517 5.28463 3.72237C4.95516 3.7321 4.61733 3.75379 4.30156 3.83758C3.64948 4.00963 3.01033 4.61931 2.97685 5.35915C2.94413 6.06308 2.93272 6.77001 2.9525 7.47394C2.97457 8.26091 2.67478 8.90126 2.12085 9.43687C1.64377 9.89843 1.13474 10.3286 0.663744 10.7954C0.195036 11.2614 -0.113886 11.8083 0.0398141 12.4957C0.131882 12.9064 0.357866 13.2573 0.663744 13.5483C1.16137 14.021 1.68258 14.4699 2.16878 14.9531C2.67858 15.4596 2.97152 16.0663 2.95022 16.8031C2.93272 17.4143 2.96087 18.0255 2.94337 18.6366C2.91141 19.7483 3.77807 20.5509 4.7794 20.5951C5.56844 20.6302 6.36053 20.6168 7.15109 20.6213C7.81002 20.625 8.40808 20.8285 8.90418 21.2422C9.45279 21.7007 9.95497 22.2131 10.4899 22.6889C10.6778 22.8565 10.8886 23.0113 11.113 23.1235C11.8755 23.5051 12.7345 23.3884 13.3759 22.8206C13.8903 22.3658 14.3887 21.8937 14.8909 21.4262C15.4395 20.9167 16.0862 20.64 16.8418 20.6228C17.1667 20.6153 17.4924 20.622 17.818 20.622C18.1947 20.6213 18.5721 20.6235 18.9487 20.6213C19.6305 20.6175 20.2247 20.4163 20.6653 19.8739C20.9734 19.4939 21.0701 19.0361 21.0936 18.5745C21.1256 17.9506 21.0975 17.3238 21.1028 16.6984C21.1081 16.0371 21.3455 15.4596 21.8043 14.9808C22.0767 14.6973 22.3773 14.44 22.6672 14.1714C22.6984 14.1422 22.7417 14.1258 22.7722 14.0958C23.0834 13.7884 23.4341 13.5094 23.6921 13.163C24.0155 12.7291 24.0634 12.216 23.9318 11.6833ZM16.8631 10.3637C16.8372 10.3884 16.8007 10.4019 16.7748 10.4258C16.4804 10.6996 16.1859 10.9734 15.8937 11.2487C15.1382 11.9616 14.3856 12.676 13.6293 13.3874C13.0807 13.9028 12.5298 14.4153 11.9767 14.9255C11.4676 15.396 10.954 15.8628 10.4351 16.3386C10.3095 16.2368 10.1733 16.1396 10.0531 16.0259C9.58898 15.5905 9.13245 15.1476 8.66831 14.7108C8.08927 14.1654 7.50643 13.6223 6.92283 13.08C6.62988 12.8077 6.33314 12.5391 6.01889 12.2519C6.49597 11.8045 6.94794 11.3804 7.42273 10.9353C8.43015 11.8711 9.42311 12.7942 10.4161 13.7166C10.6588 13.5026 10.8863 13.3089 11.1039 13.1069C11.4897 12.7486 11.8694 12.3835 12.2529 12.023C12.9285 11.3863 13.6042 10.7497 14.2814 10.1154C14.8308 9.60145 15.3816 9.08827 15.934 8.57809C16.1425 8.38509 16.3594 8.20032 16.5953 7.99161C17.0579 8.418 17.5266 8.85039 18.0075 9.29325C17.6171 9.6583 17.2405 10.0114 16.8631 10.3637Z" fill="#B0B0B0"/>
<path d="M18.0078 9.2931C17.6175 9.65815 17.2408 10.0112 16.8634 10.3636C16.8376 10.3883 16.801 10.4017 16.7752 10.4257C16.4807 10.6995 16.1862 10.9733 15.8941 11.2485C15.1385 11.9615 14.386 12.6759 13.6297 13.3873C13.081 13.9027 12.5302 14.4151 11.977 14.9253C11.468 15.3958 10.9544 15.8626 10.4354 16.3384C10.3099 16.2367 10.1737 16.1394 10.0535 16.0257C9.58932 15.5903 9.13279 15.1475 8.66865 14.7106C8.08961 14.1653 7.50677 13.6222 6.92316 13.0798C6.63022 12.8075 6.33347 12.539 6.01923 12.2517C6.4963 11.8044 6.94827 11.3802 7.42307 10.9351C8.43049 11.8709 9.42345 12.7941 10.4164 13.7164C10.6591 13.5025 10.8866 13.3087 11.1043 13.1068C11.49 12.7484 11.8697 12.3834 12.2532 12.0228C12.9289 11.3862 13.6045 10.7496 14.2817 10.1152C14.8311 9.6013 15.382 9.08812 15.9344 8.57794C16.1429 8.38494 16.3597 8.20017 16.5956 7.99146C17.0582 8.41785 17.5269 8.85024 18.0078 9.2931Z" fill="white"/>
</svg>
