<svg width="30" height="30" viewBox="0 0 30 30" fill="none" xmlns="http://www.w3.org/2000/svg">
<g clip-path="url(#clip0_2201_806)">
<path d="M6.0418 12.9918C8.45078 17.7191 12.2961 21.5613 17.025 23.9668L20.6918 20.2918C21.15 19.8336 21.8086 19.7 22.3836 19.8836C24.2504 20.5004 26.2586 20.8336 28.3336 20.8336C29.2586 20.8336 30.0004 21.5754 30.0004 22.5004V28.3336C30.0004 29.2586 29.2586 30.0004 28.3336 30.0004C12.6832 30 0 17.3168 0 1.6668C0 0.746094 0.746094 0 1.6668 0H7.5C8.425 0 9.1668 0.741797 9.1668 1.6668C9.1668 3.7418 9.5 5.75 10.1168 7.6168C10.3 8.1918 10.1668 8.85 9.70859 9.30859L6.0418 12.9918Z" fill="#C81E25"/>
</g>
<defs>
<clipPath id="clip0_2201_806">
<rect width="30" height="30" fill="white"/>
</clipPath>
</defs>
</svg>
