<svg width="33" height="30" viewBox="0 0 33 30" fill="none" xmlns="http://www.w3.org/2000/svg">
<path d="M22.6833 8.17753C21.1868 3.43639 16.7998 0 11.618 0C5.20045 0 0 5.26619 0 11.7648C0 11.7963 0 11.8309 0 11.8623C0 11.8717 0 11.878 0 11.8874V21.8225C0 22.7625 0.537121 22.9889 1.19222 22.3224L3.4028 20.0838C5.50472 22.2123 8.41076 23.5297 11.618 23.5297C11.7422 23.5297 11.8694 23.5234 11.9936 23.5202C11.6366 22.3915 11.441 21.1874 11.441 19.9392C11.441 13.5789 16.4489 8.38189 22.6833 8.17753ZM33.0035 19.9392C33.0035 14.3901 28.5637 9.88787 23.0869 9.87843C23.0807 9.87843 23.0745 9.87843 23.0683 9.87843C17.5822 9.87843 13.1331 14.3838 13.1331 19.9392C13.1331 21.1308 13.338 22.2721 13.7137 23.3347C14.2384 24.8218 15.1015 26.1455 16.2068 27.2144L14.6482 28.7927C13.9931 29.4561 14.2135 30 15.1419 30H23.2328C23.2328 30 23.2266 30 23.2266 29.9969C28.6413 29.912 33.0035 25.4444 33.0035 19.9392Z" fill="#C81E25"/>
</svg>
